# This file uses centimeters as units for non-parametric coordinates.

mtllib Mirror_Body_Square.mtl
v -1.627112 4.012219 1.627112
v 1.627112 4.012219 1.627112
v -1.627112 14.531398 1.627112
v 1.627112 14.531398 1.627112
v -1.627112 14.531398 -1.627112
v 1.627112 14.531398 -1.627112
v -1.627112 4.012219 -1.627112
v 1.627112 4.012219 -1.627112
vt 0.142197 0.008031
vt 0.258434 0.016062
vt 0.116237 0.383763
vt 0.232474 0.391794
vt 0.108206 0.500000
vt 0.224442 0.508031
vt 0.082245 0.875732
vt 0.198482 0.883763
vt 0.374671 0.024094
vt 0.348710 0.399826
vt 0.025961 0.000000
vt 0.000000 0.375732
vn 0.000000 0.000000 1.000000
vn 0.000000 0.000000 1.000000
vn 0.000000 0.000000 1.000000
vn 0.000000 0.000000 1.000000
vn 0.000000 0.000000 -1.000000
vn 0.000000 0.000000 -1.000000
vn 0.000000 0.000000 -1.000000
vn 0.000000 0.000000 -1.000000
vn 1.000000 0.000000 0.000000
vn 1.000000 0.000000 0.000000
vn 1.000000 0.000000 0.000000
vn 1.000000 0.000000 0.000000
vn -1.000000 0.000000 0.000000
vn -1.000000 0.000000 0.000000
vn -1.000000 0.000000 0.000000
vn -1.000000 0.000000 0.000000
s off
usemtl lambert9SG
f 1/1/1 2/2/2 4/4/3 3/3/4
f 5/5/5 6/6/6 8/8/7 7/7/8
f 2/2/9 8/9/10 6/10/11 4/4/12
f 7/11/13 1/1/14 3/3/15 5/12/16
