# This file uses centimeters as units for non-parametric coordinates.

mtllib Mirror_Body_Base.mtl
v 2.348496 14.497670 -0.763073
v 1.997751 14.497670 -1.451451
v 1.451451 14.497670 -1.997751
v 0.763073 14.497670 -2.348496
v 0.000000 14.497670 -2.469355
v 0.000000 14.497670 2.469354
v 0.763072 14.497670 2.348495
v 1.451450 14.497670 1.997749
v 1.997749 14.497670 1.451450
v 2.348495 14.497670 0.763072
v 2.469354 14.497670 -0.000000
v 2.348496 15.064674 -0.763073
v 1.997751 15.064674 -1.451451
v 1.451451 15.064674 -1.997751
v 0.763073 15.064674 -2.348496
v 0.000000 15.064674 -2.469355
v 0.000000 15.064674 2.469354
v 0.763072 15.064674 2.348495
v 1.451450 15.064674 1.997749
v 1.997749 15.064674 1.451450
v 2.348495 15.064674 0.763072
v 2.469354 15.064674 -0.000000
v -0.000000 14.497670 -0.000000
v -0.000000 15.064674 -0.000000
v -2.348496 14.497670 -0.763073
v -1.997751 14.497670 -1.451451
v -1.451451 14.497670 -1.997751
v -0.763073 14.497670 -2.348496
v -0.763072 14.497670 2.348495
v -1.451450 14.497670 1.997749
v -1.997749 14.497670 1.451450
v -2.348495 14.497670 0.763072
v -2.469354 14.497670 -0.000000
v -2.348496 15.064674 -0.763073
v -1.997751 15.064674 -1.451451
v -1.451451 15.064674 -1.997751
v -0.763073 15.064674 -2.348496
v -0.763072 15.064674 2.348495
v -1.451450 15.064674 1.997749
v -1.997749 15.064674 1.451450
v -2.348495 15.064674 0.763072
v -2.469354 15.064674 -0.000000
v 2.348496 3.458637 -0.763073
v 1.997751 3.458637 -1.451451
v 1.451451 3.458637 -1.997751
v 0.763073 3.458637 -2.348496
v 0.000000 3.458637 -2.469355
v 0.000000 3.458637 2.469354
v 0.763072 3.458637 2.348495
v 1.451450 3.458637 1.997749
v 1.997749 3.458637 1.451450
v 2.348495 3.458637 0.763072
v 2.469354 3.458637 -0.000000
v 2.348496 4.025642 -0.763073
v 1.997751 4.025642 -1.451451
v 1.451451 4.025642 -1.997751
v 0.763073 4.025642 -2.348496
v 0.000000 4.025642 -2.469355
v 0.000000 4.025642 2.469354
v 0.763072 4.025642 2.348495
v 1.451450 4.025642 1.997749
v 1.997749 4.025642 1.451450
v 2.348495 4.025642 0.763072
v 2.469354 4.025642 -0.000000
v -0.000000 3.458637 -0.000000
v -0.000000 4.025642 -0.000000
v -2.348496 3.458637 -0.763073
v -1.997751 3.458637 -1.451451
v -1.451451 3.458637 -1.997751
v -0.763073 3.458637 -2.348496
v -0.763072 3.458637 2.348495
v -1.451450 3.458637 1.997749
v -1.997749 3.458637 1.451450
v -2.348495 3.458637 0.763072
v -2.469354 3.458637 -0.000000
v -2.348496 4.025642 -0.763073
v -1.997751 4.025642 -1.451451
v -1.451451 4.025642 -1.997751
v -0.763073 4.025642 -2.348496
v -0.763072 4.025642 2.348495
v -1.451450 4.025642 1.997749
v -1.997749 4.025642 1.451450
v -2.348495 4.025642 0.763072
v -2.469354 4.025642 -0.000000
vt 0.990407 0.135451
vt 0.962568 0.080813
vt 0.919208 0.037453
vt 0.864571 0.009614
vt 0.804005 0.000022
vt 0.804005 0.392011
vt 0.864571 0.382418
vt 0.919208 0.354579
vt 0.962568 0.311219
vt 0.990407 0.256582
vt 1.000000 0.196016
vt 0.248982 0.918749
vt 0.304140 0.891957
vt 0.359298 0.865164
vt 0.414456 0.838372
vt 0.469614 0.811579
vt 0.036310 0.916950
vt 0.091468 0.890158
vt 0.146625 0.863365
vt 0.201783 0.836573
vt 0.256941 0.809780
vt 0.312099 0.782988
vt 0.367257 0.756195
vt 0.268646 0.959230
vt 0.323803 0.932437
vt 0.378961 0.905645
vt 0.434119 0.878852
vt 0.489277 0.852060
vt 0.055973 0.957431
vt 0.111131 0.930638
vt 0.166289 0.903846
vt 0.221446 0.877053
vt 0.276604 0.850261
vt 0.331762 0.823468
vt 0.386920 0.796676
vt 0.803671 0.525784
vt 0.775832 0.471147
vt 0.732472 0.427787
vt 0.677835 0.399948
vt 0.617269 0.390355
vt 0.617269 0.782344
vt 0.677834 0.772752
vt 0.732472 0.744913
vt 0.775832 0.701552
vt 0.803671 0.646915
vt 0.813263 0.586350
vt 0.804005 0.196016
vt 0.617269 0.586350
vt 0.710637 0.393604
vt 0.764872 0.422219
vt 0.785873 0.382416
vt 0.731638 0.353801
vt 0.819106 0.450834
vt 0.840107 0.411031
vt 0.873341 0.479449
vt 0.894342 0.439646
vt 0.927576 0.508065
vt 0.948576 0.468261
vt 0.414971 0.726464
vt 0.469205 0.755079
vt 0.490206 0.715276
vt 0.435971 0.686661
vt 0.523440 0.783694
vt 0.544441 0.743891
vt 0.577674 0.812309
vt 0.598675 0.772506
vt 0.631909 0.840924
vt 0.652910 0.801121
vt 0.686143 0.869540
vt 0.707144 0.829736
vt 0.740378 0.898155
vt 0.761379 0.858352
vt 0.462084 0.476948
vt 0.401035 0.482718
vt 0.449777 0.672555
vt 0.521928 0.490324
vt 0.574709 0.521539
vt 0.615261 0.567536
vt 0.259940 0.721297
vt 0.284294 0.777575
vt 0.254169 0.660249
vt 0.267546 0.600405
vt 0.298761 0.547624
vt 0.344758 0.507072
vt 0.374946 0.314625
vt 0.432641 0.335397
vt 0.469367 0.142874
vt 0.493932 0.337323
vt 0.552818 0.320215
vt 0.603535 0.285748
vt 0.335200 -0.000000
vt 0.297616 0.048453
vt 0.276844 0.106148
vt 0.274918 0.167438
vt 0.292026 0.226324
vt 0.326493 0.277041
vt 0.684701 0.932183
vt 0.739859 0.905391
vt 0.759522 0.945872
vt 0.704365 0.972664
vt 0.795017 0.878598
vt 0.814680 0.919079
vt 0.850175 0.851806
vt 0.869838 0.892287
vt 0.905333 0.825013
vt 0.924996 0.865494
vt 0.088181 0.944306
vt 0.143339 0.917513
vt 0.163002 0.957994
vt 0.107844 0.984786
vt 0.198497 0.890721
vt 0.218160 0.931201
vt 0.253655 0.863928
vt 0.273318 0.904409
vt 0.308812 0.837136
vt 0.328476 0.877616
vt 0.363970 0.810343
vt 0.383633 0.850824
vt 0.419128 0.783551
vt 0.438791 0.824031
vt 0.158563 0.601085
vt 0.186402 0.655722
vt 0.000000 0.716287
vt 0.115203 0.557724
vt 0.060566 0.529885
vt 0.000000 0.520293
vt 0.060566 0.902689
vt 0.000000 0.912282
vt 0.115203 0.874850
vt 0.158563 0.831490
vt 0.186402 0.776853
vt 0.195995 0.716287
vt 0.793297 0.256582
vt 0.765457 0.311219
vt 0.606895 0.196016
vt 0.722097 0.354579
vt 0.667460 0.382418
vt 0.606894 0.392011
vt 0.606895 0.000022
vt 0.667460 0.009614
vt 0.722097 0.037453
vt 0.765458 0.080814
vt 0.793297 0.135451
vt 0.802889 0.196016
vt 0.757321 0.743863
vt 0.778322 0.704059
vt 0.832557 0.732675
vt 0.811556 0.772478
vt 0.886791 0.761290
vt 0.865790 0.801093
vt 0.941026 0.789905
vt 0.920025 0.829708
vt 0.995261 0.818520
vt 0.974260 0.858323
vt 0.368286 0.755453
vt 0.389287 0.715650
vt 0.443522 0.744265
vt 0.422521 0.784068
vt 0.497756 0.772880
vt 0.476755 0.812683
vt 0.551991 0.801495
vt 0.530990 0.841298
vt 0.606225 0.830110
vt 0.585225 0.869913
vt 0.660460 0.858725
vt 0.639459 0.898529
vt 0.714695 0.887341
vt 0.693694 0.927144
vt 0.347967 0.314515
vt 0.335660 0.510123
vt 0.286919 0.320286
vt 0.407811 0.327892
vt 0.460592 0.359106
vt 0.501144 0.405104
vt 0.145823 0.558865
vt 0.170177 0.615142
vt 0.140053 0.497816
vt 0.153429 0.437972
vt 0.184644 0.385191
vt 0.230641 0.344639
vt 0.100028 0.314625
vt 0.194449 0.142874
vt 0.157723 0.335397
vt 0.219014 0.337323
vt 0.277900 0.320215
vt 0.328617 0.285748
vt 0.060282 -0.000000
vt 0.022698 0.048453
vt 0.001926 0.106148
vt 0.000000 0.167438
vt 0.017108 0.226324
vt 0.051575 0.277041
vn 0.951057 0.000000 -0.309016
vn 0.809017 0.000000 -0.587785
vn 0.809017 0.000000 -0.587785
vn 0.951057 0.000000 -0.309016
vn 0.587785 0.000000 -0.809017
vn 0.587785 0.000000 -0.809017
vn 0.309017 0.000000 -0.951057
vn 0.309017 0.000000 -0.951057
vn 0.000000 0.000000 -1.000000
vn 0.000000 0.000000 -1.000000
vn 0.000000 0.000000 1.000000
vn 0.309017 0.000000 0.951057
vn 0.309017 0.000000 0.951057
vn 0.000000 0.000000 1.000000
vn 0.587785 0.000000 0.809017
vn 0.587785 0.000000 0.809017
vn 0.809017 0.000000 0.587785
vn 0.809017 0.000000 0.587785
vn 0.951057 0.000000 0.309017
vn 0.951057 0.000000 0.309017
vn 1.000000 0.000000 0.000001
vn 1.000000 0.000000 0.000001
vn 0.000000 -1.000000 -0.000001
vn 0.000000 -1.000000 -0.000001
vn 0.000000 -1.000000 0.000000
vn 0.000000 -1.000000 0.000001
vn 0.000000 -1.000000 0.000001
vn 0.000000 -1.000000 -0.000000
vn 0.000000 -1.000000 -0.000001
vn 0.000000 -1.000000 0.000000
vn 0.000000 -1.000000 -0.000001
vn 0.000000 -1.000000 0.000000
vn 0.000000 -1.000000 0.000002
vn 0.000000 -1.000000 0.000002
vn 0.000000 1.000000 0.000000
vn 0.000000 1.000000 0.000000
vn 0.000000 1.000000 -0.000000
vn 0.000000 1.000000 0.000000
vn 0.000000 1.000000 0.000000
vn 0.000000 1.000000 0.000000
vn 0.000000 1.000000 -0.000000
vn 0.000000 1.000000 -0.000000
vn 0.000000 1.000000 0.000000
vn 0.000000 1.000000 -0.000001
vn 0.000000 1.000000 -0.000001
vn 0.000000 1.000000 0.000000
vn -0.951057 0.000000 -0.309016
vn -0.951057 0.000000 -0.309016
vn -0.809017 0.000000 -0.587785
vn -0.809017 0.000000 -0.587785
vn -0.587785 0.000000 -0.809017
vn -0.587785 0.000000 -0.809017
vn -0.309017 0.000000 -0.951057
vn -0.309017 0.000000 -0.951057
vn -0.309017 0.000000 0.951057
vn -0.309017 0.000000 0.951057
vn -0.587785 0.000000 0.809017
vn -0.587785 0.000000 0.809017
vn -0.809017 0.000000 0.587785
vn -0.809017 0.000000 0.587785
vn -0.951057 0.000000 0.309017
vn -0.951057 0.000000 0.309017
vn -1.000000 0.000000 0.000001
vn -1.000000 0.000000 0.000001
vn 0.000000 -1.000000 -0.000001
vn 0.000000 -1.000000 -0.000001
vn 0.000000 -1.000000 0.000001
vn 0.000000 -1.000000 0.000001
vn 0.000000 -1.000000 -0.000001
vn 0.000000 -1.000000 -0.000001
vn 0.000000 -1.000000 -0.000000
vn 0.000000 -1.000000 0.000001
vn 0.000000 -1.000000 0.000001
vn 0.000000 1.000000 0.000000
vn 0.000000 1.000000 0.000001
vn 0.000000 1.000000 0.000000
vn 0.000000 1.000000 -0.000001
vn 0.000000 1.000000 0.000000
vn 0.000000 1.000000 0.000001
vn 0.000000 1.000000 -0.000001
vn 0.000000 1.000000 -0.000001
vn 0.000000 1.000000 0.000001
vn 0.951057 0.000000 -0.309016
vn 0.809017 0.000000 -0.587785
vn 0.809017 0.000000 -0.587785
vn 0.951057 0.000000 -0.309016
vn 0.587785 0.000000 -0.809017
vn 0.587785 0.000000 -0.809017
vn 0.309017 0.000000 -0.951057
vn 0.309017 0.000000 -0.951057
vn 0.000000 0.000000 -1.000000
vn 0.000000 0.000000 -1.000000
vn 0.000000 0.000000 1.000000
vn 0.309017 0.000000 0.951057
vn 0.309017 0.000000 0.951057
vn 0.000000 0.000000 1.000000
vn 0.587785 0.000000 0.809017
vn 0.587785 0.000000 0.809017
vn 0.809017 0.000000 0.587785
vn 0.809017 0.000000 0.587785
vn 0.951057 0.000000 0.309017
vn 0.951057 0.000000 0.309017
vn 1.000000 0.000000 0.000001
vn 1.000000 0.000000 0.000001
vn 0.000000 -1.000000 0.000000
vn 0.000000 -1.000000 0.000000
vn 0.000000 -1.000000 0.000000
vn 0.000000 -1.000000 0.000000
vn 0.000000 -1.000000 0.000000
vn 0.000000 -1.000000 -0.000000
vn 0.000000 -1.000000 0.000000
vn 0.000000 -1.000000 0.000000
vn 0.000000 -1.000000 0.000000
vn 0.000000 -1.000000 0.000000
vn 0.000000 -1.000000 0.000000
vn 0.000000 -1.000000 0.000000
vn 0.000000 1.000000 0.000000
vn 0.000000 1.000000 0.000000
vn 0.000000 1.000000 -0.000000
vn 0.000000 1.000000 0.000000
vn 0.000000 1.000000 0.000000
vn 0.000000 1.000000 0.000000
vn 0.000000 1.000000 -0.000000
vn 0.000000 1.000000 -0.000000
vn 0.000000 1.000000 0.000000
vn 0.000000 1.000000 0.000000
vn 0.000000 1.000000 0.000000
vn 0.000000 1.000000 0.000000
vn -0.951057 0.000000 -0.309016
vn -0.951057 0.000000 -0.309016
vn -0.809017 0.000000 -0.587785
vn -0.809017 0.000000 -0.587785
vn -0.587785 0.000000 -0.809017
vn -0.587785 0.000000 -0.809017
vn -0.309017 0.000000 -0.951057
vn -0.309017 0.000000 -0.951057
vn -0.309017 0.000000 0.951057
vn -0.309017 0.000000 0.951057
vn -0.587785 0.000000 0.809017
vn -0.587785 0.000000 0.809017
vn -0.809017 0.000000 0.587785
vn -0.809017 0.000000 0.587785
vn -0.951057 0.000000 0.309017
vn -0.951057 0.000000 0.309017
vn -1.000000 0.000000 0.000001
vn -1.000000 0.000000 0.000001
vn 0.000000 -1.000000 -0.000000
vn 0.000000 -1.000000 -0.000000
vn 0.000000 -1.000000 0.000000
vn 0.000000 -1.000000 0.000000
vn 0.000000 -1.000000 0.000000
vn 0.000000 -1.000000 0.000000
vn 0.000000 -1.000000 -0.000000
vn 0.000000 -1.000000 0.000000
vn 0.000000 -1.000000 0.000000
vn 0.000000 1.000000 0.000000
vn 0.000000 1.000000 0.000000
vn 0.000000 1.000000 0.000000
vn 0.000000 1.000000 0.000000
vn 0.000000 1.000000 0.000000
vn 0.000000 1.000000 0.000000
vn 0.000000 1.000000 -0.000000
vn 0.000000 1.000000 -0.000000
vn 0.000000 1.000000 -0.000000
s 1
usemtl lambert7SG
f 1/12/1 2/13/2 13/25/3 12/24/4
f 2/13/2 3/14/5 14/26/6 13/25/3
f 3/14/5 4/15/7 15/27/8 14/26/6
f 4/15/7 5/16/9 16/28/10 15/27/8
f 6/17/11 7/18/12 18/30/13 17/29/14
f 7/18/12 8/19/15 19/31/16 18/30/13
f 8/19/15 9/20/17 20/32/18 19/31/16
f 9/20/17 10/21/19 21/33/20 20/32/18
f 10/21/19 11/22/21 22/34/22 21/33/20
f 11/22/21 1/23/1 12/35/4 22/34/22
s 3
f 2/2/23 1/1/24 23/47/25
f 3/3/26 2/2/23 23/47/25
f 4/4/27 3/3/26 23/47/25
f 5/5/28 4/4/27 23/47/25
f 7/7/29 6/6/30 23/47/25
f 8/8/31 7/7/29 23/47/25
f 9/9/32 8/8/31 23/47/25
f 10/10/33 9/9/32 23/47/25
f 11/11/34 10/10/33 23/47/25
f 1/1/24 11/11/34 23/47/25
s 5
f 12/45/35 13/44/36 24/48/37
f 13/44/36 14/43/38 24/48/37
f 14/43/38 15/42/39 24/48/37
f 15/42/39 16/41/40 24/48/37
f 17/40/41 18/39/42 24/48/37
f 18/39/42 19/38/43 24/48/37
f 19/38/43 20/37/44 24/48/37
f 20/37/44 21/36/45 24/48/37
f 21/36/45 22/46/46 24/48/37
f 22/46/46 12/45/35 24/48/37
s 1
f 25/49/47 34/52/48 35/51/49 26/50/50
f 26/50/50 35/51/49 36/54/51 27/53/52
f 27/53/52 36/54/51 37/56/53 28/55/54
f 28/55/54 37/56/53 16/58/10 5/57/9
f 6/59/11 17/62/14 38/61/55 29/60/56
f 29/60/56 38/61/55 39/64/57 30/63/58
f 30/63/58 39/64/57 40/66/59 31/65/60
f 31/65/60 40/66/59 41/68/61 32/67/62
f 32/67/62 41/68/61 42/70/63 33/69/64
f 33/69/64 42/70/63 34/72/48 25/71/47
s 3
f 26/73/65 23/75/25 25/74/66
f 27/76/67 23/75/25 26/73/65
f 28/77/68 23/75/25 27/76/67
f 5/78/28 23/75/25 28/77/68
f 29/79/69 23/75/25 6/80/30
f 30/81/70 23/75/25 29/79/69
f 31/82/71 23/75/25 30/81/70
f 32/83/72 23/75/25 31/82/71
f 33/84/73 23/75/25 32/83/72
f 25/74/66 23/75/25 33/84/73
s 5
f 34/85/74 24/87/37 35/86/75
f 35/86/75 24/87/37 36/88/76
f 36/88/76 24/87/37 37/89/77
f 37/89/77 24/87/37 16/90/40
f 17/91/41 24/87/37 38/92/78
f 38/92/78 24/87/37 39/93/79
f 39/93/79 24/87/37 40/94/80
f 40/94/80 24/87/37 41/95/81
f 41/95/81 24/87/37 42/96/82
f 42/96/82 24/87/37 34/85/74
s 10
f 43/97/83 44/98/84 55/99/85 54/100/86
f 44/98/84 45/101/87 56/102/88 55/99/85
f 45/101/87 46/103/89 57/104/90 56/102/88
f 46/103/89 47/105/91 58/106/92 57/104/90
f 48/107/93 49/108/94 60/109/95 59/110/96
f 49/108/94 50/111/97 61/112/98 60/109/95
f 50/111/97 51/113/99 62/114/100 61/112/98
f 51/113/99 52/115/101 63/116/102 62/114/100
f 52/115/101 53/117/103 64/118/104 63/116/102
f 53/117/103 43/119/83 54/120/86 64/118/104
s 12
f 44/121/105 43/122/106 65/123/107
f 45/124/108 44/121/105 65/123/107
f 46/125/109 45/124/108 65/123/107
f 47/126/110 46/125/109 65/123/107
f 49/127/111 48/128/112 65/123/107
f 50/129/113 49/127/111 65/123/107
f 51/130/114 50/129/113 65/123/107
f 52/131/115 51/130/114 65/123/107
f 53/132/116 52/131/115 65/123/107
f 43/122/106 53/132/116 65/123/107
s 14
f 54/133/117 55/134/118 66/135/119
f 55/134/118 56/136/120 66/135/119
f 56/136/120 57/137/121 66/135/119
f 57/137/121 58/138/122 66/135/119
f 59/139/123 60/140/124 66/135/119
f 60/140/124 61/141/125 66/135/119
f 61/141/125 62/142/126 66/135/119
f 62/142/126 63/143/127 66/135/119
f 63/143/127 64/144/128 66/135/119
f 64/144/128 54/133/117 66/135/119
s 10
f 67/145/129 76/146/130 77/147/131 68/148/132
f 68/148/132 77/147/131 78/149/133 69/150/134
f 69/150/134 78/149/133 79/151/135 70/152/136
f 70/152/136 79/151/135 58/153/92 47/154/91
f 48/155/93 59/156/96 80/157/137 71/158/138
f 71/158/138 80/157/137 81/159/139 72/160/140
f 72/160/140 81/159/139 82/161/141 73/162/142
f 73/162/142 82/161/141 83/163/143 74/164/144
f 74/164/144 83/163/143 84/165/145 75/166/146
f 75/166/146 84/165/145 76/167/130 67/168/129
s 12
f 68/169/147 65/170/107 67/171/148
f 69/172/149 65/170/107 68/169/147
f 70/173/150 65/170/107 69/172/149
f 47/174/110 65/170/107 70/173/150
f 71/175/151 65/170/107 48/176/112
f 72/177/152 65/170/107 71/175/151
f 73/178/153 65/170/107 72/177/152
f 74/179/154 65/170/107 73/178/153
f 75/180/155 65/170/107 74/179/154
f 67/171/148 65/170/107 75/180/155
s 14
f 76/181/156 66/182/119 77/183/157
f 77/183/157 66/182/119 78/184/158
f 78/184/158 66/182/119 79/185/159
f 79/185/159 66/182/119 58/186/122
f 59/187/123 66/182/119 80/188/160
f 80/188/160 66/182/119 81/189/161
f 81/189/161 66/182/119 82/190/162
f 82/190/162 66/182/119 83/191/163
f 83/191/163 66/182/119 84/192/164
f 84/192/164 66/182/119 76/181/156
