# This file uses centimeters as units for non-parametric coordinates.

v 0.304794 -3.113976 -0.099033
v 0.259273 -3.113976 -0.188373
v 0.188373 -3.113976 -0.259273
v 0.099034 -3.113976 -0.304794
v 0.000000 -3.113976 -0.320479
v -0.099033 -3.113976 -0.304794
v -0.188373 -3.113976 -0.259273
v -0.259273 -3.113976 -0.188373
v -0.304793 -3.113976 -0.099033
v -0.320479 -3.113976 0.000000
v -0.304793 -3.113976 0.099033
v -0.259273 -3.113976 0.188373
v -0.188373 -3.113976 0.259273
v -0.099033 -3.113976 0.304793
v 0.000000 -3.113976 0.320479
v 0.099033 -3.113976 0.304793
v 0.188373 -3.113976 0.259273
v 0.259273 -3.113976 0.188373
v 0.304794 -3.113976 0.099033
v 0.320479 -3.113976 0.000000
v 0.459883 2.495444 -0.149425
v 0.391200 2.495444 -0.284223
v 0.284224 2.495444 -0.391199
v 0.149425 2.495444 -0.459883
v 0.000000 2.495444 -0.483550
v -0.149425 2.495444 -0.459883
v -0.284223 2.495444 -0.391199
v -0.391199 2.495444 -0.284223
v -0.459882 2.495444 -0.149425
v -0.483549 2.495444 0.000000
v -0.459882 2.495444 0.149425
v -0.391199 2.495444 0.284223
v -0.284223 2.495444 0.391200
v -0.149425 2.495444 0.459882
v 0.000000 2.495444 0.483549
v 0.149425 2.495444 0.459883
v 0.284223 2.495444 0.391200
v 0.391200 2.495444 0.284223
v 0.459883 2.495444 0.149425
v 0.483549 2.495444 0.000000
v 0.000000 -3.113976 0.000000
v 0.688089 2.495444 -0.223574
v 0.585323 2.495444 -0.425262
v 0.425262 2.495444 -0.585323
v 0.223574 2.495444 -0.688088
v 0.000000 2.495444 -0.723499
v -0.223573 2.495444 -0.688088
v -0.425262 2.495444 -0.585323
v -0.585323 2.495444 -0.425262
v -0.688088 2.495444 -0.223574
v -0.723499 2.495444 0.000000
v -0.688088 2.495444 0.223573
v -0.585323 2.495444 0.425262
v -0.425262 2.495444 0.585323
v -0.223573 2.495444 0.688088
v 0.000000 2.495444 0.723499
v 0.223573 2.495444 0.688088
v 0.425262 2.495444 0.585323
v 0.585323 2.495444 0.425262
v 0.688088 2.495444 0.223574
v 0.723499 2.495444 0.000000
v 0.568117 2.924055 -0.184592
v 0.483269 2.924055 -0.351116
v 0.000000 2.924055 0.000000
v 0.351115 2.924055 -0.483269
v 0.184592 2.924055 -0.568117
v 0.000000 2.924055 -0.597353
v -0.184592 2.924055 -0.568117
v -0.351115 2.924055 -0.483269
v -0.483269 2.924055 -0.351115
v -0.568116 2.924055 -0.184592
v -0.597353 2.924055 0.000000
v -0.568116 2.924055 0.184592
v -0.483269 2.924055 0.351115
v -0.351115 2.924055 0.483269
v -0.184592 2.924055 0.568116
v 0.000000 2.924055 0.597353
v 0.184592 2.924055 0.568116
v 0.351115 2.924055 0.483268
v 0.483269 2.924055 0.351115
v 0.568116 2.924055 0.184592
v 0.597353 2.924055 0.000000
v 0.688089 3.113977 -0.223574
v 0.585323 3.113977 -0.425262
v 0.483269 3.113977 -0.351116
v 0.568117 3.113977 -0.184592
v 0.425262 3.113977 -0.585323
v 0.351115 3.113977 -0.483269
v 0.223574 3.113977 -0.688088
v 0.184592 3.113977 -0.568117
v 0.000000 3.113977 -0.723499
v 0.000000 3.113977 -0.597353
v -0.223573 3.113977 -0.688088
v -0.184592 3.113977 -0.568117
v -0.425262 3.113977 -0.585323
v -0.351115 3.113977 -0.483269
v -0.585323 3.113977 -0.425262
v -0.483269 3.113977 -0.351115
v -0.688088 3.113977 -0.223574
v -0.568116 3.113977 -0.184592
v -0.723499 3.113977 0.000000
v -0.597353 3.113977 0.000000
v -0.688088 3.113977 0.223573
v -0.568116 3.113977 0.184592
v -0.585323 3.113977 0.425262
v -0.483269 3.113977 0.351115
v -0.425262 3.113977 0.585323
v -0.351115 3.113977 0.483269
v -0.223573 3.113977 0.688088
v -0.184592 3.113977 0.568116
v 0.000000 3.113977 0.723499
v 0.000000 3.113977 0.597353
v 0.223573 3.113977 0.688088
v 0.184592 3.113977 0.568116
v 0.425262 3.113977 0.585323
v 0.351115 3.113977 0.483268
v 0.585323 3.113977 0.425262
v 0.483269 3.113977 0.351115
v 0.688088 3.113977 0.223574
v 0.568116 3.113977 0.184592
v 0.723499 3.113977 0.000000
v 0.597353 3.113977 0.000000
vt 0.487214 0.167150
vt 0.453462 0.100909
vt 0.400893 0.048340
vt 0.334652 0.014588
vt 0.261222 0.002958
vt 0.187793 0.014588
vt 0.121552 0.048340
vt 0.068983 0.100909
vt 0.035231 0.167150
vt 0.023601 0.240579
vt 0.035231 0.314008
vt 0.068983 0.380250
vt 0.121552 0.432819
vt 0.187794 0.466570
vt 0.261222 0.478200
vt 0.334651 0.466570
vt 0.400893 0.432819
vt 0.453462 0.380250
vt 0.487214 0.314008
vt 0.498844 0.240579
vt 0.667499 0.013729
vt 0.678374 0.015064
vt 0.689265 0.016265
vt 0.700170 0.017331
vt 0.711088 0.018264
vt 0.722016 0.019062
vt 0.732953 0.019725
vt 0.743897 0.020254
vt 0.754847 0.020648
vt 0.765801 0.020907
vt 0.776758 0.021032
vt 0.787715 0.021021
vt 0.798671 0.020876
vt 0.809625 0.020596
vt 0.820574 0.020181
vt 0.831517 0.019631
vt 0.842453 0.018946
vt 0.853379 0.018127
vt 0.864295 0.017174
vt 0.875198 0.016087
vt 0.886087 0.014865
vt 0.576931 0.715842
vt 0.596455 0.718238
vt 0.616007 0.720394
vt 0.635585 0.722309
vt 0.655184 0.723984
vt 0.674803 0.725416
vt 0.694438 0.726607
vt 0.714086 0.727556
vt 0.733744 0.728264
vt 0.753409 0.728729
vt 0.773079 0.728952
vt 0.792750 0.728934
vt 0.812419 0.728673
vt 0.832083 0.728170
vt 0.851740 0.727425
vt 0.871386 0.726438
vt 0.891019 0.725209
vt 0.910635 0.723739
vt 0.930231 0.722027
vt 0.949805 0.720074
vt 0.969353 0.717881
vt 0.064426 0.843991
vt 0.101425 0.908506
vt 0.156546 0.958426
vt 0.224390 0.988869
vt 0.298318 0.996858
vt 0.371093 0.981615
vt 0.435597 0.944634
vt 0.485518 0.889533
vt 0.515974 0.821703
vt 0.523981 0.747779
vt 0.508754 0.674996
vt 0.471780 0.610477
vt 0.416675 0.560539
vt 0.348834 0.530075
vt 0.274898 0.522065
vt 0.202104 0.537295
vt 0.137578 0.574277
vt 0.087636 0.629392
vt 0.057172 0.697248
vt 0.049177 0.771196
vt 0.261222 0.240579
vt 0.286539 0.759407
vt 0.089662 0.706121
vt 0.115792 0.647877
vt 0.158642 0.600562
vt 0.214012 0.568806
vt 0.276483 0.555714
vt 0.339942 0.562566
vt 0.398180 0.588694
vt 0.445491 0.631541
vt 0.477243 0.686907
vt 0.490329 0.749372
vt 0.483474 0.812820
vt 0.457352 0.871044
vt 0.414520 0.918347
vt 0.359168 0.950104
vt 0.296711 0.963205
vt 0.233259 0.956367
vt 0.175022 0.930257
vt 0.127700 0.887426
vt 0.095928 0.832065
vt 0.082820 0.769590
vt 0.207303 0.740064
vt 0.217177 0.716522
vt 0.233851 0.697185
vt 0.255691 0.683949
vt 0.280553 0.678112
vt 0.306001 0.680233
vt 0.329570 0.690058
vt 0.348869 0.706746
vt 0.362083 0.728571
vt 0.367914 0.753410
vt 0.365789 0.778836
vt 0.355914 0.802362
vt 0.339256 0.821688
vt 0.317443 0.834925
vt 0.292607 0.840775
vt 0.267177 0.838668
vt 0.243641 0.828807
vt 0.224302 0.812157
vt 0.211053 0.790344
vt 0.205194 0.765503
vt 0.165258 0.730975
vt 0.180001 0.694886
vt 0.193342 0.703182
vt 0.180510 0.734743
vt 0.205179 0.665123
vt 0.215303 0.677136
vt 0.238322 0.644599
vt 0.244238 0.659153
vt 0.276180 0.635316
vt 0.277309 0.650988
vt 0.315054 0.638173
vt 0.311283 0.653427
vt 0.351150 0.652887
vt 0.342852 0.666221
vt 0.380922 0.678059
vt 0.368922 0.688185
vt 0.401448 0.711206
vt 0.386897 0.717124
vt 0.410722 0.749069
vt 0.395051 0.750196
vt 0.407845 0.787940
vt 0.392591 0.784167
vt 0.393101 0.824017
vt 0.379758 0.815715
vt 0.367935 0.853772
vt 0.357809 0.841754
vt 0.334808 0.874298
vt 0.328889 0.859740
vt 0.296960 0.883586
vt 0.295828 0.867912
vt 0.258093 0.880727
vt 0.261858 0.865471
vt 0.222008 0.865999
vt 0.230302 0.852654
vt 0.192237 0.840841
vt 0.204248 0.830713
vt 0.171695 0.807713
vt 0.186248 0.801793
vt 0.162398 0.769855
vt 0.178066 0.768723
vn 0.950655 -0.029059 -0.308885
vn 0.808676 -0.029059 -0.587537
vn 0.808676 -0.029059 -0.587537
vn 0.950655 -0.029059 -0.308885
vn 0.587538 -0.029058 -0.808675
vn 0.587537 -0.029058 -0.808675
vn 0.308886 -0.029059 -0.950655
vn 0.308886 -0.029058 -0.950655
vn -0.000000 -0.029059 -0.999578
vn 0.000000 -0.029059 -0.999578
vn -0.308886 -0.029059 -0.950655
vn -0.308887 -0.029059 -0.950655
vn -0.587538 -0.029058 -0.808675
vn -0.587538 -0.029058 -0.808675
vn -0.808676 -0.029058 -0.587536
vn -0.808676 -0.029058 -0.587536
vn -0.950655 -0.029059 -0.308886
vn -0.950655 -0.029059 -0.308886
vn -0.999578 -0.029058 -0.000000
vn -0.999578 -0.029058 -0.000000
vn -0.950655 -0.029059 0.308887
vn -0.950655 -0.029059 0.308887
vn -0.808675 -0.029059 0.587538
vn -0.808675 -0.029059 0.587538
vn -0.587536 -0.029059 0.808676
vn -0.587536 -0.029059 0.808676
vn -0.308885 -0.029058 0.950655
vn -0.308885 -0.029058 0.950655
vn -0.000003 -0.029059 0.999578
vn -0.000003 -0.029058 0.999578
vn 0.308885 -0.029059 0.950655
vn 0.308885 -0.029059 0.950655
vn 0.587538 -0.029059 0.808675
vn 0.587537 -0.029059 0.808675
vn 0.808675 -0.029058 0.587537
vn 0.808675 -0.029059 0.587538
vn 0.950655 -0.029059 0.308886
vn 0.950655 -0.029059 0.308886
vn 0.999578 -0.029058 0.000001
vn 0.999578 -0.029058 0.000001
vn 0.000000 -1.000000 0.000002
vn 0.000000 -1.000000 -0.000002
vn 0.000000 -1.000000 -0.000000
vn 0.000000 -1.000000 0.000001
vn 0.000000 -1.000000 -0.000001
vn 0.000000 -1.000000 0.000000
vn 0.000000 -1.000000 0.000000
vn 0.000000 -1.000000 0.000000
vn 0.000000 -1.000000 -0.000002
vn 0.000000 -1.000000 -0.000002
vn 0.000000 -1.000000 0.000000
vn 0.000000 -1.000000 0.000000
vn 0.000000 -1.000000 0.000000
vn 0.000000 -1.000000 0.000000
vn 0.000000 -1.000000 0.000001
vn 0.000000 -1.000000 0.000001
vn 0.000000 -1.000000 0.000000
vn 0.000000 -1.000000 0.000000
vn 0.000000 -1.000000 0.000002
vn 0.000000 -1.000000 0.000002
vn 0.000000 -1.000000 -0.000002
vn 0.000000 1.000000 0.000000
vn 0.000000 1.000000 0.000000
vn 0.000000 1.000000 0.000000
vn 0.000000 1.000000 0.000000
vn 0.000000 1.000000 0.000000
vn 0.000000 1.000000 0.000000
vn 0.000000 1.000000 0.000000
vn 0.000000 1.000000 0.000000
vn 0.000000 1.000000 0.000000
vn 0.000000 1.000000 0.000000
vn 0.000000 1.000000 0.000000
vn 0.000000 1.000000 0.000000
vn 0.000000 1.000000 0.000000
vn 0.000000 1.000000 0.000000
vn 0.000000 1.000000 0.000000
vn 0.000000 1.000000 0.000000
vn 0.000000 1.000000 0.000000
vn 0.000000 1.000000 0.000000
vn 0.000000 1.000000 0.000000
vn 0.000000 1.000000 0.000000
vn 0.000000 1.000000 0.000000
vn 0.000000 -1.000000 -0.000003
vn 0.000000 -1.000000 -0.000003
vn 0.000000 -1.000000 -0.000003
vn 0.000000 -1.000000 -0.000003
vn 0.000000 -1.000000 0.000000
vn 0.000000 -1.000000 0.000000
vn 0.000000 -1.000000 0.000000
vn 0.000000 -1.000000 0.000000
vn 0.000000 -1.000000 -0.000003
vn 0.000000 -1.000000 -0.000003
vn 0.000000 -1.000000 -0.000003
vn 0.000000 -1.000000 -0.000003
vn 0.000000 -1.000000 0.000000
vn 0.000000 -1.000000 0.000000
vn 0.000000 -1.000000 0.000000
vn 0.000000 -1.000000 0.000000
vn 0.000000 -1.000000 0.000000
vn 0.000000 -1.000000 0.000000
vn 0.000000 -1.000000 0.000000
vn 0.000000 -1.000000 0.000000
vn 0.000000 -1.000000 -0.000005
vn 0.000000 -1.000000 -0.000005
vn 0.000000 -1.000000 -0.000005
vn 0.000000 -1.000000 -0.000005
vn 0.000000 -1.000000 0.000003
vn 0.000000 -1.000000 0.000003
vn 0.000000 -1.000000 0.000003
vn 0.000000 -1.000000 0.000003
vn 0.000000 -1.000000 0.000000
vn 0.000000 -1.000000 0.000000
vn 0.000000 -1.000000 0.000000
vn 0.000000 -1.000000 0.000000
vn 0.000000 -1.000000 0.000000
vn 0.000000 -1.000000 0.000000
vn 0.000000 -1.000000 0.000000
vn 0.000000 -1.000000 0.000000
vn 0.000000 -1.000000 -0.000005
vn 0.000000 -1.000000 -0.000005
vn 0.000000 -1.000000 -0.000005
vn 0.000000 -1.000000 -0.000005
vn 0.000000 -1.000000 0.000003
vn 0.000000 -1.000000 0.000003
vn 0.000000 -1.000000 0.000003
vn 0.000000 -1.000000 0.000003
vn 0.000000 -1.000000 -0.000003
vn 0.000000 -1.000000 -0.000003
vn 0.000000 -1.000000 -0.000003
vn 0.000000 -1.000000 -0.000003
vn 0.000000 -1.000000 0.000000
vn 0.000000 -1.000000 0.000000
vn 0.000000 -1.000000 0.000000
vn 0.000000 -1.000000 0.000000
vn 0.000000 -1.000000 0.000000
vn 0.000000 -1.000000 0.000000
vn 0.000000 -1.000000 0.000000
vn 0.000000 -1.000000 0.000000
vn 0.000000 -1.000000 0.000000
vn 0.000000 -1.000000 0.000000
vn 0.000000 -1.000000 0.000000
vn 0.000000 -1.000000 0.000000
vn 0.000000 -1.000000 0.000003
vn 0.000000 -1.000000 0.000003
vn 0.000000 -1.000000 0.000003
vn 0.000000 -1.000000 0.000003
vn 0.000000 -1.000000 0.000000
vn 0.000000 -1.000000 0.000000
vn 0.000000 -1.000000 0.000000
vn 0.000000 -1.000000 0.000000
vn 0.000000 -1.000000 0.000003
vn 0.000000 -1.000000 0.000003
vn 0.000000 -1.000000 0.000003
vn 0.000000 -1.000000 0.000003
vn 0.000000 -1.000000 0.000003
vn 0.000000 -1.000000 0.000003
vn 0.000000 -1.000000 0.000003
vn 0.000000 -1.000000 0.000003
vn 0.000000 -1.000000 0.000000
vn 0.000000 -1.000000 0.000000
vn 0.000000 -1.000000 0.000000
vn 0.000000 -1.000000 0.000000
vn 0.000000 1.000000 0.000000
vn 0.000000 1.000000 0.000000
vn 0.000000 1.000000 0.000000
vn 0.000000 1.000000 0.000000
vn 0.000000 1.000000 0.000000
vn 0.000000 1.000000 0.000000
vn 0.000000 1.000000 0.000000
vn 0.000000 1.000000 0.000000
vn 0.000000 1.000000 -0.000002
vn 0.000000 1.000000 -0.000002
vn 0.000000 1.000000 -0.000002
vn 0.000000 1.000000 -0.000002
vn 0.000000 1.000000 0.000003
vn 0.000000 1.000000 0.000003
vn 0.000000 1.000000 0.000003
vn 0.000000 1.000000 0.000003
vn 0.000000 1.000000 0.000005
vn 0.000000 1.000000 0.000005
vn 0.000000 1.000000 0.000005
vn 0.000000 1.000000 0.000005
vn 0.000000 1.000000 -0.000003
vn 0.000000 1.000000 -0.000003
vn 0.000000 1.000000 -0.000003
vn 0.000000 1.000000 -0.000003
vn 0.000000 1.000000 -0.000002
vn 0.000000 1.000000 -0.000002
vn 0.000000 1.000000 -0.000002
vn 0.000000 1.000000 -0.000002
vn 0.000000 1.000000 0.000000
vn 0.000000 1.000000 0.000000
vn 0.000000 1.000000 0.000000
vn 0.000000 1.000000 0.000000
vn 0.000000 1.000000 0.000000
vn 0.000000 1.000000 0.000000
vn 0.000000 1.000000 0.000000
vn 0.000000 1.000000 0.000000
vn 0.000000 1.000000 0.000000
vn 0.000000 1.000000 0.000000
vn 0.000000 1.000000 0.000000
vn 0.000000 1.000000 0.000000
vn 0.000000 1.000000 0.000000
vn 0.000000 1.000000 0.000000
vn 0.000000 1.000000 0.000000
vn 0.000000 1.000000 0.000000
vn 0.000000 1.000000 0.000000
vn 0.000000 1.000000 0.000000
vn 0.000000 1.000000 0.000000
vn 0.000000 1.000000 0.000000
vn 0.000000 1.000000 0.000002
vn 0.000000 1.000000 0.000002
vn 0.000000 1.000000 0.000002
vn 0.000000 1.000000 0.000002
vn 0.000000 1.000000 0.000006
vn 0.000000 1.000000 0.000006
vn 0.000000 1.000000 0.000006
vn 0.000000 1.000000 0.000006
vn 0.000000 1.000000 -0.000005
vn 0.000000 1.000000 -0.000005
vn 0.000000 1.000000 -0.000005
vn 0.000000 1.000000 -0.000005
vn 0.000000 1.000000 0.000003
vn 0.000000 1.000000 0.000003
vn 0.000000 1.000000 0.000003
vn 0.000000 1.000000 0.000003
vn 0.000000 1.000000 0.000002
vn 0.000000 1.000000 0.000002
vn 0.000000 1.000000 0.000002
vn 0.000000 1.000000 0.000002
vn 0.000000 1.000000 0.000000
vn 0.000000 1.000000 0.000000
vn 0.000000 1.000000 0.000000
vn 0.000000 1.000000 0.000000
vn 0.000000 1.000000 0.000000
vn 0.000000 1.000000 0.000000
vn 0.000000 1.000000 0.000000
vn 0.000000 1.000000 0.000000
vn 0.000000 1.000000 0.000000
vn 0.000000 1.000000 0.000000
vn 0.000000 1.000000 0.000000
vn 0.000000 1.000000 0.000000
vn 0.809017 0.000000 -0.587786
vn 0.809017 0.000000 -0.587786
vn 0.951057 0.000000 -0.309016
vn 0.951057 0.000000 -0.309016
vn -0.809016 0.000000 0.587786
vn -0.951057 0.000000 0.309017
vn -0.951057 0.000000 0.309017
vn -0.809016 0.000000 0.587786
vn 0.587785 0.000000 -0.809017
vn 0.587785 0.000000 -0.809017
vn -0.587785 0.000000 0.809017
vn -0.587785 0.000000 0.809017
vn 0.309018 0.000000 -0.951056
vn 0.309018 0.000000 -0.951056
vn -0.309016 0.000000 0.951057
vn -0.309016 0.000000 0.951057
vn 0.000000 0.000000 -1.000000
vn 0.000000 0.000000 -1.000000
vn 0.000000 0.000000 1.000000
vn 0.000000 0.000000 1.000000
vn -0.309017 0.000000 -0.951057
vn -0.309017 0.000000 -0.951057
vn 0.309017 0.000000 0.951057
vn 0.309017 0.000000 0.951057
vn -0.587786 0.000000 -0.809017
vn -0.587786 0.000000 -0.809017
vn 0.587785 0.000000 0.809017
vn 0.587785 0.000000 0.809017
vn -0.809017 0.000000 -0.587785
vn -0.809017 0.000000 -0.587785
vn 0.809017 0.000000 0.587785
vn 0.809017 0.000000 0.587785
vn -0.951056 0.000000 -0.309018
vn -0.951056 0.000000 -0.309018
vn 0.951057 0.000000 0.309017
vn 0.951057 0.000000 0.309017
vn -1.000000 0.000000 -0.000000
vn -1.000000 0.000000 -0.000000
vn 1.000000 0.000000 0.000000
vn 1.000000 0.000000 0.000000
vn -0.951056 0.000000 0.309018
vn -0.951056 0.000000 0.309018
vn 0.951056 0.000000 -0.309017
vn 0.951056 0.000000 -0.309017
vn -0.809017 0.000000 0.587785
vn -0.809017 0.000000 0.587785
vn 0.809017 0.000000 -0.587785
vn 0.809017 0.000000 -0.587785
vn -0.587785 0.000000 0.809017
vn -0.587785 0.000000 0.809017
vn 0.587785 0.000000 -0.809017
vn 0.587785 0.000000 -0.809017
vn -0.309017 0.000000 0.951056
vn -0.309017 0.000000 0.951056
vn 0.309017 0.000000 -0.951057
vn 0.309017 0.000000 -0.951057
vn -0.000000 0.000000 1.000000
vn -0.000000 0.000000 1.000000
vn 0.000000 0.000000 -1.000000
vn 0.000000 0.000000 -1.000000
vn 0.309017 0.000000 0.951057
vn 0.309017 0.000000 0.951057
vn -0.309018 0.000000 -0.951056
vn -0.309018 0.000000 -0.951056
vn 0.587786 0.000000 0.809017
vn 0.587786 0.000000 0.809017
vn -0.587785 0.000000 -0.809017
vn -0.587785 0.000000 -0.809017
vn 0.809017 0.000000 0.587785
vn 0.809017 0.000000 0.587785
vn -0.809017 0.000000 -0.587786
vn -0.809017 0.000000 -0.587786
vn 0.951057 0.000000 0.309017
vn 0.951057 0.000000 0.309017
vn -0.951056 0.000000 -0.309017
vn -0.951056 0.000000 -0.309017
vn 1.000000 0.000000 0.000001
vn 1.000000 0.000000 0.000001
vn -1.000000 0.000000 -0.000002
vn -1.000000 0.000000 -0.000002
s 1
f 1/21/1 2/22/2 22/43/3 21/42/4
f 2/22/2 3/23/5 23/44/6 22/43/3
f 3/23/5 4/24/7 24/45/8 23/44/6
f 4/24/7 5/25/9 25/46/10 24/45/8
f 5/25/9 6/26/11 26/47/12 25/46/10
f 6/26/11 7/27/13 27/48/14 26/47/12
f 7/27/13 8/28/15 28/49/16 27/48/14
f 8/28/15 9/29/17 29/50/18 28/49/16
f 9/29/17 10/30/19 30/51/20 29/50/18
f 10/30/19 11/31/21 31/52/22 30/51/20
f 11/31/21 12/32/23 32/53/24 31/52/22
f 12/32/23 13/33/25 33/54/26 32/53/24
f 13/33/25 14/34/27 34/55/28 33/54/26
f 14/34/27 15/35/29 35/56/30 34/55/28
f 15/35/29 16/36/31 36/57/32 35/56/30
f 16/36/31 17/37/33 37/58/34 36/57/32
f 17/37/33 18/38/35 38/59/36 37/58/34
f 18/38/35 19/39/37 39/60/38 38/59/36
f 19/39/37 20/40/39 40/61/40 39/60/38
f 20/40/39 1/41/1 21/62/4 40/61/40
s 2
f 2/2/41 1/1/42 41/83/43
f 3/3/44 2/2/41 41/83/43
f 4/4/45 3/3/44 41/83/43
f 5/5/46 4/4/45 41/83/43
f 6/6/47 5/5/46 41/83/43
f 7/7/48 6/6/47 41/83/43
f 8/8/49 7/7/48 41/83/43
f 9/9/50 8/8/49 41/83/43
f 10/10/51 9/9/50 41/83/43
f 11/11/52 10/10/51 41/83/43
f 12/12/53 11/11/52 41/83/43
f 13/13/54 12/12/53 41/83/43
f 14/14/55 13/13/54 41/83/43
f 15/15/56 14/14/55 41/83/43
f 16/16/57 15/15/56 41/83/43
f 17/17/58 16/16/57 41/83/43
f 18/18/59 17/17/58 41/83/43
f 19/19/60 18/18/59 41/83/43
f 20/20/61 19/19/60 41/83/43
f 1/1/42 20/20/61 41/83/43
s 3
f 62/105/62 63/106/63 64/84/64
f 63/106/63 65/107/65 64/84/64
f 65/107/65 66/108/66 64/84/64
f 66/108/66 67/109/67 64/84/64
f 67/109/67 68/110/68 64/84/64
f 68/110/68 69/111/69 64/84/64
f 69/111/69 70/112/70 64/84/64
f 70/112/70 71/113/71 64/84/64
f 71/113/71 72/114/72 64/84/64
f 72/114/72 73/115/73 64/84/64
f 73/115/73 74/116/74 64/84/64
f 74/116/74 75/117/75 64/84/64
f 75/117/75 76/118/76 64/84/64
f 76/118/76 77/119/77 64/84/64
f 77/119/77 78/120/78 64/84/64
f 78/120/78 79/121/79 64/84/64
f 79/121/79 80/122/80 64/84/64
f 80/122/80 81/123/81 64/84/64
f 81/123/81 82/124/82 64/84/64
f 82/124/82 62/105/62 64/84/64
s off
f 21/81/83 22/80/84 43/86/85 42/85/86
f 22/80/87 23/79/88 44/87/89 43/86/90
f 23/79/91 24/78/92 45/88/93 44/87/94
f 24/78/95 25/77/96 46/89/97 45/88/98
f 25/77/99 26/76/100 47/90/101 46/89/102
f 26/76/103 27/75/104 48/91/105 47/90/106
f 27/75/107 28/74/108 49/92/109 48/91/110
f 28/74/111 29/73/112 50/93/113 49/92/114
f 29/73/115 30/72/116 51/94/117 50/93/118
f 30/72/119 31/71/120 52/95/121 51/94/122
f 31/71/123 32/70/124 53/96/125 52/95/126
f 32/70/127 33/69/128 54/97/129 53/96/130
f 33/69/131 34/68/132 55/98/133 54/97/134
f 34/68/135 35/67/136 56/99/137 55/98/138
f 35/67/139 36/66/140 57/100/141 56/99/142
f 36/66/143 37/65/144 58/101/145 57/100/146
f 37/65/147 38/64/148 59/102/149 58/101/150
f 38/64/151 39/63/152 60/103/153 59/102/154
f 39/63/155 40/82/156 61/104/157 60/103/158
f 40/82/159 21/81/160 42/85/161 61/104/162
f 83/125/163 84/126/164 85/127/165 86/128/166
f 84/126/167 87/129/168 88/130/169 85/127/170
f 87/129/171 89/131/172 90/132/173 88/130/174
f 89/131/175 91/133/176 92/134/177 90/132/178
f 91/133/179 93/135/180 94/136/181 92/134/182
f 93/135/183 95/137/184 96/138/185 94/136/186
f 95/137/187 97/139/188 98/140/189 96/138/190
f 97/139/191 99/141/192 100/142/193 98/140/194
f 99/141/195 101/143/196 102/144/197 100/142/198
f 101/143/199 103/145/200 104/146/201 102/144/202
f 103/145/203 105/147/204 106/148/205 104/146/206
f 105/147/207 107/149/208 108/150/209 106/148/210
f 107/149/211 109/151/212 110/152/213 108/150/214
f 109/151/215 111/153/216 112/154/217 110/152/218
f 111/153/219 113/155/220 114/156/221 112/154/222
f 113/155/223 115/157/224 116/158/225 114/156/226
f 115/157/227 117/159/228 118/160/229 116/158/230
f 117/159/231 119/161/232 120/162/233 118/160/234
f 119/161/235 121/163/236 122/164/237 120/162/238
f 121/163/239 83/125/240 86/128/241 122/164/242
s 4
f 43/86/243 84/126/244 83/125/245 42/85/246
s 5
f 63/106/247 62/105/248 86/128/249 85/127/250
s 4
f 44/87/251 87/129/252 84/126/244 43/86/243
s 5
f 65/107/253 63/106/247 85/127/250 88/130/254
s 4
f 45/88/255 89/131/256 87/129/252 44/87/251
s 5
f 66/108/257 65/107/253 88/130/254 90/132/258
s 4
f 46/89/259 91/133/260 89/131/256 45/88/255
s 5
f 67/109/261 66/108/257 90/132/258 92/134/262
s 4
f 47/90/263 93/135/264 91/133/260 46/89/259
s 5
f 68/110/265 67/109/261 92/134/262 94/136/266
s 4
f 48/91/267 95/137/268 93/135/264 47/90/263
s 5
f 69/111/269 68/110/265 94/136/266 96/138/270
s 4
f 49/92/271 97/139/272 95/137/268 48/91/267
s 5
f 70/112/273 69/111/269 96/138/270 98/140/274
s 4
f 50/93/275 99/141/276 97/139/272 49/92/271
s 5
f 71/113/277 70/112/273 98/140/274 100/142/278
s 4
f 51/94/279 101/143/280 99/141/276 50/93/275
s 5
f 72/114/281 71/113/277 100/142/278 102/144/282
s 4
f 52/95/283 103/145/284 101/143/280 51/94/279
s 5
f 73/115/285 72/114/281 102/144/282 104/146/286
s 4
f 53/96/287 105/147/288 103/145/284 52/95/283
s 5
f 74/116/289 73/115/285 104/146/286 106/148/290
s 4
f 54/97/291 107/149/292 105/147/288 53/96/287
s 5
f 75/117/293 74/116/289 106/148/290 108/150/294
s 4
f 55/98/295 109/151/296 107/149/292 54/97/291
s 5
f 76/118/297 75/117/293 108/150/294 110/152/298
s 4
f 56/99/299 111/153/300 109/151/296 55/98/295
s 5
f 77/119/301 76/118/297 110/152/298 112/154/302
s 4
f 57/100/303 113/155/304 111/153/300 56/99/299
s 5
f 78/120/305 77/119/301 112/154/302 114/156/306
s 4
f 58/101/307 115/157/308 113/155/304 57/100/303
s 5
f 79/121/309 78/120/305 114/156/306 116/158/310
s 4
f 59/102/311 117/159/312 115/157/308 58/101/307
s 5
f 80/122/313 79/121/309 116/158/310 118/160/314
s 4
f 60/103/315 119/161/316 117/159/312 59/102/311
s 5
f 81/123/317 80/122/313 118/160/314 120/162/318
s 4
f 61/104/319 121/163/320 119/161/316 60/103/315
s 5
f 82/124/321 81/123/317 120/162/318 122/164/322
s 4
f 42/85/246 83/125/245 121/163/320 61/104/319
s 5
f 62/105/248 82/124/321 122/164/322 86/128/249
