# This file uses centimeters as units for non-parametric coordinates.

mtllib Wire.mtl
v -0.500000 -0.500000 10.000000
v 0.500000 -0.500000 10.000000
v -0.500000 0.500000 10.000000
v 0.500000 0.500000 10.000000
v -0.500000 0.500000 0.000000
v 0.500000 0.500000 0.000000
v -0.500000 -0.500000 0.000000
v 0.500000 -0.500000 0.000000
vt 0.253319 0.000016
vt -0.000201 0.000032
vt 0.746279 -0.000016
vt 0.499799 0.000000
vt 0.746680 0.999984
vt 0.000041 0.941657
vt 1.000201 0.999968
vt 0.253721 1.000016
vt 1.000040 0.941662
vt 0.999960 0.993596
vt 0.500201 1.000000
vt -0.000041 0.993591
vt 0.000340 0.028033
vt 0.000135 0.003710
vt 0.992784 0.028029
vt 0.992579 0.003705
vt 0.000201 1.000032
vt 0.999799 -0.000032
vn 0.000000 0.000000 1.000000
vn 0.000000 0.000000 1.000000
vn 0.000000 0.000000 1.000000
vn 0.000000 0.000000 1.000000
vn 0.000000 1.000000 0.000000
vn 0.000000 1.000000 0.000000
vn 0.000000 1.000000 0.000000
vn 0.000000 1.000000 0.000000
vn 0.000000 0.000000 -1.000000
vn 0.000000 0.000000 -1.000000
vn 0.000000 0.000000 -1.000000
vn 0.000000 0.000000 -1.000000
vn 0.000000 -1.000000 0.000000
vn 0.000000 -1.000000 0.000000
vn 0.000000 -1.000000 0.000000
vn 0.000000 -1.000000 0.000000
vn 1.000000 0.000000 0.000000
vn 1.000000 0.000000 0.000000
vn 1.000000 0.000000 0.000000
vn 1.000000 0.000000 0.000000
vn -1.000000 0.000000 0.000000
vn -1.000000 0.000000 0.000000
vn -1.000000 0.000000 0.000000
vn -1.000000 0.000000 0.000000
s off
usemtl initialShadingGroup
f 1/15/1 2/13/2 4/14/3 3/16/4
f 3/4/5 4/3/6 6/5/7 5/11/8
f 5/6/9 6/9/10 8/10/11 7/12/12
f 7/8/13 8/17/14 2/2/15 1/1/16
f 2/18/17 8/7/18 6/5/19 4/3/20
f 7/8/21 1/1/22 3/4/23 5/11/24
